<svg xmlns="http://www.w3.org/2000/svg" fillRule="evenodd" stroke-linejoin="round" stroke-miterlimit="2" clip-rule="evenodd" viewBox="0 0 64 64" id="discord"><path fill="none" d="M0 0h64v64H0z"></path><path d="M24.607 47.307a45.945 45.945 0 0 1-2.132 5.005 1 1 0 0 1-1.108.528c-5.87-1.31-11.008-3.673-14.9-6.748a1 1 0 0 1-.375-.726A61.8 61.8 0 0 1 6 41.988c0-10.952 2.866-20.339 7.507-27.553a1 1 0 0 1 .446-.378c3.143-1.344 6.65-2.348 10.403-2.932a1 1 0 0 1 1.108.7c.396 1.32.746 2.68 1.048 4.074A41.736 41.736 0 0 1 32 15.541c1.882 0 3.718.123 5.488.358a53.925 53.925 0 0 1 1.048-4.075 1 1 0 0 1 1.108-.7c3.753.585 7.26 1.59 10.403 2.934a.996.996 0 0 1 .446.376C55.134 21.65 58 31.036 58 41.988a61.8 61.8 0 0 1-.092 3.378.996.996 0 0 1-.374.727c-3.893 3.074-9.032 5.437-14.901 6.746a1 1 0 0 1-1.109-.526 46.241 46.241 0 0 1-2.131-5.006c2.508-.482 4.855-1.204 6.978-2.122a1.001 1.001 0 0 0-.794-1.836C41.7 45.026 37.027 46 32 46c-5.027 0-9.7-.975-13.577-2.652a1.001 1.001 0 0 0-.794 1.836c2.123.918 4.47 1.64 6.978 2.122ZM41 27c2.76 0 5 2.24 5 5s-2.24 5-5 5-5-2.24-5-5 2.24-5 5-5Zm-18 0c2.76 0 5 2.24 5 5s-2.24 5-5 5-5-2.24-5-5 2.24-5 5-5Z"></path></svg>