<svg xmlns="http://www.w3.org/2000/svg" enable-background="new 0 0 66 66" viewBox="0 0 66 66" id="global-connection"><path d="M9.0907 46.5574c.6933 1.0453.3947 2.4533-.64 3.1574-.0213.0106-.0533.0106-.064.032-.0107 0-.0107 0-.0107 0C7.352 50.376 5.9227 50.056 5.272 49.064c-.6934-1.056-.3947-2.4747.6507-3.168C6.9571 45.2164 8.3847 45.4807 9.0907 46.5574zM5.2613 16.744c.4267-.6507 1.1413-1.0346 1.92-1.0346.4267 0 .832.1173 1.1841.3413H8.376c.0214.0106.0427.0213.0747.0426 1.0347.6933 1.3227 2.1013.64 3.1574-.6613 1.0133-2.144 1.3227-3.1574.6613C4.8773 19.2294 4.5786 17.8 5.2613 16.744zM6.2747 43.4853c-1.2693-3.2-1.952-6.5813-2.0053-10.048h11.6693c.224 1.216 1.2053 2.176 2.4426 2.368.1493 3.232.544 6.3574 1.1627 9.3014-.9066.4053-1.536 1.216-1.7066 2.1653H11.544C11.2695 44.8803 9.0987 42.9811 6.2747 43.4853zM15.9493 32.3707h-11.68c.0533-3.4773.736-6.8587 2.0053-10.0587 2.4348.541 4.9664-1.1034 5.2693-3.7867h6.2934c.1815 1.0167.8248 1.7786 1.7066 2.1654-.6187 2.944-1.0133 6.0693-1.1627 9.3013C17.1547 30.1734 16.184 31.112 15.9493 32.3707zM27.5867 61.1174c-6.7307-1.2907-12.832-4.9814-17.12-10.3894.608-.672.9707-1.5146 1.0773-2.3893h6.2934c.0106.0533.0106.1173.032.1707.32 1.3227 1.504 2.2507 2.8693 2.2507.1173 0 .2346-.032.3627-.0426C22.744 55.432 24.9947 59.016 27.5867 61.1174zM11.544 17.4587c-.1066-.8746-.4693-1.7173-1.0773-2.4 4.288-5.4079 10.4-9.0986 17.1307-10.3786-2.592 2.1014-4.8426 5.6747-6.496 10.3893-1.3251-.2403-2.9186.659-3.264 2.3893H11.544z"></path><path d="M28.92 5c.608 1.4294 1.9413 2.4533 3.5413 2.656v7.4347c-1.2373.192-2.2187 1.1413-2.4426 2.368h-6.3893c-.16-.864-.704-1.6426-1.504-2.0693C23.8426 10.4613 26.2214 6.8454 28.92 5zM19.448 30.0133c.1493-3.1467.5333-6.1973 1.1413-9.0773 1.0086.2522 2.7296-.7043 3.04-2.4107h6.3893c.224 1.2267 1.2053 2.1867 2.4426 2.3787v9.0986c-1.2053.2133-2.144 1.1627-2.368 2.368H21.752C21.5387 31.208 20.6426 30.28 19.448 30.0133zM20.5893 44.8613c-.608-2.8799-.992-5.92-1.1307-9.0667 1.152-.2346 2.0587-1.152 2.2827-2.3573h8.352c.224 1.1947 1.1626 2.144 2.368 2.368v9.0987c-1.2053.224-2.144 1.1626-2.368 2.368h-6.464c-.0107-.0533-.0107-.1173-.0214-.1706C23.2667 45.7253 21.9654 44.7973 20.5893 44.8613zM32.4613 58.344c-1.536.192-2.8266 1.152-3.456 2.5067-2.7413-1.824-5.1413-5.472-6.8907-10.4427.4693-.2453.8747-.608 1.152-1.0667.192-.32.3093-.6507.3733-1.0027h6.4534c.224 1.2053 1.1626 2.144 2.368 2.368V58.344zM35.2773 62.7067c0 1.2693-1.024 2.2933-2.2827 2.2933-1.2587 0-2.2827-1.024-2.2827-2.2933 0-1.2587 1.024-2.2827 2.2827-2.2827C34.2533 60.424 35.2773 61.448 35.2773 62.7067zM30.712 3.2827C30.712 2.024 31.736 1 32.9947 1c1.2587 0 2.2827 1.024 2.2827 2.2827s-1.024 2.2934-2.2827 2.2934C31.736 5.576 30.712 4.5413 30.712 3.2827zM33.528 7.656c1.6-.2027 2.9333-1.2266 3.5413-2.656 2.6987 1.8454 5.0773 5.472 6.8053 10.4-.7786.416-1.3547 1.1627-1.5253 2.0587h-6.528c-.2027-1.1626-1.088-2.0799-2.2934-2.3466V7.656zM36.9947 60.8507c-.64-1.3547-1.9307-2.3147-3.4667-2.5067v-7.6373c1.2053-.224 2.144-1.1627 2.368-2.368h6.4533c.1679.9235.7162 1.6464 1.5253 2.0693C42.1253 55.3787 39.7253 59.0267 36.9947 60.8507zM45.2507 20.9467c.0534 0 .1067-.0107.1493-.0107.608 2.88.992 5.9307 1.1307 9.0773-1.1626.2453-2.0693 1.184-2.2827 2.3574h-8.352c-.224-1.2053-1.1627-2.1547-2.368-2.368v-9.12c1.184-.2346 2.08-1.1733 2.2934-2.3574h6.528C42.6053 19.9014 43.8107 20.9467 45.2507 20.9467zM46.5307 35.7947c-.1387 3.136-.5227 6.1867-1.12 9.0667-1.3384-.0618-2.729.8045-3.0507 2.4107h-6.464c-.224-1.2053-1.1627-2.144-2.368-2.368v-9.0987c1.2053-.224 2.144-1.1733 2.368-2.368h8.352C44.4613 34.6107 45.368 35.5387 46.5307 35.7947z"></path><path d="M54.424 48.3387c.1173.8854.4906 1.7173 1.088 2.4-4.2773 5.3973-10.3786 9.088-17.1093 10.3787 2.592-2.1014 4.8426-5.6853 6.4854-10.4 1.8441.1529 2.9851-.9861 3.264-2.3787H54.424zM38.4027 4.68c6.72 1.28 12.832 4.9707 17.1307 10.3786-.608.6827-.9813 1.5254-1.088 2.4H48.152c-.2454-1.376-1.4507-2.4213-2.9014-2.4213-.1173 0-.2346.0213-.3626.0426C43.2453 10.3654 40.984 6.7814 38.4027 4.68zM56.8987 19.2507c-.9921-1.5147.096-3.5413 1.9093-3.5413.7786 0 1.4934.384 1.92 1.0346.6827 1.056.384 2.4854-.6613 3.168C59.032 20.584 57.56 20.264 56.8987 19.2507zM60.856 48.84c-.5546 1.088-1.984 1.568-3.072 1.0133-1.1307-.576-1.5786-1.952-1.0027-3.0826.579-1.158 1.986-1.5511 3.0613-1.0133C60.9627 46.3333 61.4214 47.72 60.856 48.84zM50.0507 33.4374h11.68c-.064 3.4667-.736 6.8373-2.016 10.048-2.5273-.5416-4.997 1.2296-5.2693 3.7867H48.152c-.1888-1.0383-.857-1.7895-1.7067-2.1653.6187-2.9547 1.0133-6.0693 1.152-9.2907C48.8347 35.624 49.8267 34.664 50.0507 33.4374zM59.7146 22.312c1.28 3.2 1.952 6.5813 2.016 10.0587h-11.68c-.224-1.2267-1.216-2.1867-2.4533-2.3787-.1387-3.2213-.5333-6.3466-1.152-9.2906.8747-.3947 1.536-1.2053 1.7067-2.176h6.2933C54.7507 21.1868 57.257 22.8582 59.7146 22.312z"></path></svg>